<mxfile host="app.diagrams.net" modified="2023-06-03T13:26:26.709Z" agent="Mozilla/5.0 (Macintosh; Intel Mac OS X 10_15_7) AppleWebKit/537.36 (KHTML, like Gecko) Chrome/113.0.0.0 Safari/537.36" etag="o06AqgfnuX76ektVLnY_" version="21.3.7" type="github">
  <diagram name="Page-1" id="nM5qsLzYHlIQSogLps28">
    <mxGraphModel dx="704" dy="438" grid="1" gridSize="10" guides="1" tooltips="1" connect="1" arrows="1" fold="1" page="1" pageScale="1" pageWidth="827" pageHeight="1169" math="0" shadow="0">
      <root>
        <mxCell id="0" />
        <mxCell id="1" parent="0" />
        <mxCell id="tnRPR4-ctebeujlcDWqT-1" value="&lt;b&gt;Liquidity Provider&lt;/b&gt;" style="rounded=1;whiteSpace=wrap;html=1;" vertex="1" parent="1">
          <mxGeometry x="80" y="80" width="200" height="60" as="geometry" />
        </mxCell>
        <mxCell id="tnRPR4-ctebeujlcDWqT-2" value="" style="endArrow=classic;html=1;rounded=0;" edge="1" parent="1">
          <mxGeometry width="50" height="50" relative="1" as="geometry">
            <mxPoint x="120" y="140" as="sourcePoint" />
            <mxPoint x="120" y="240" as="targetPoint" />
          </mxGeometry>
        </mxCell>
        <mxCell id="tnRPR4-ctebeujlcDWqT-3" value="" style="endArrow=classic;html=1;rounded=0;" edge="1" parent="1">
          <mxGeometry width="50" height="50" relative="1" as="geometry">
            <mxPoint x="240" y="240" as="sourcePoint" />
            <mxPoint x="240" y="140" as="targetPoint" />
          </mxGeometry>
        </mxCell>
        <mxCell id="tnRPR4-ctebeujlcDWqT-4" value="&lt;font style=&quot;font-size: 11px;&quot;&gt;Add liquidity by depositing 10 Token A&lt;/font&gt;" style="rounded=0;whiteSpace=wrap;html=1;strokeColor=#ffffff;" vertex="1" parent="1">
          <mxGeometry x="60" y="170" width="120" height="40" as="geometry" />
        </mxCell>
        <mxCell id="tnRPR4-ctebeujlcDWqT-5" value="&lt;font style=&quot;font-size: 11px;&quot;&gt;Claim 5 LP shares&lt;/font&gt;" style="rounded=0;whiteSpace=wrap;html=1;strokeColor=#ffffff;" vertex="1" parent="1">
          <mxGeometry x="180" y="170" width="120" height="40" as="geometry" />
        </mxCell>
        <mxCell id="tnRPR4-ctebeujlcDWqT-6" value="&lt;b&gt;Token Reserve&lt;/b&gt;&lt;br&gt;+10&lt;br&gt;&lt;b&gt;LP Shares&lt;/b&gt;&lt;br&gt;-5" style="rounded=1;whiteSpace=wrap;html=1;" vertex="1" parent="1">
          <mxGeometry x="80" y="240" width="200" height="60" as="geometry" />
        </mxCell>
        <mxCell id="tnRPR4-ctebeujlcDWqT-7" value="&lt;b&gt;Liquidity Provider&lt;/b&gt;" style="rounded=1;whiteSpace=wrap;html=1;" vertex="1" parent="1">
          <mxGeometry x="320" y="80" width="200" height="60" as="geometry" />
        </mxCell>
        <mxCell id="tnRPR4-ctebeujlcDWqT-8" value="" style="endArrow=classic;html=1;rounded=0;" edge="1" parent="1">
          <mxGeometry width="50" height="50" relative="1" as="geometry">
            <mxPoint x="360" y="140" as="sourcePoint" />
            <mxPoint x="360" y="240" as="targetPoint" />
          </mxGeometry>
        </mxCell>
        <mxCell id="tnRPR4-ctebeujlcDWqT-9" value="" style="endArrow=classic;html=1;rounded=0;" edge="1" parent="1">
          <mxGeometry width="50" height="50" relative="1" as="geometry">
            <mxPoint x="480" y="240" as="sourcePoint" />
            <mxPoint x="480" y="140" as="targetPoint" />
          </mxGeometry>
        </mxCell>
        <mxCell id="tnRPR4-ctebeujlcDWqT-10" value="&lt;font style=&quot;font-size: 11px;&quot;&gt;Surrender 5 LP shares&lt;/font&gt;" style="rounded=0;whiteSpace=wrap;html=1;strokeColor=#ffffff;" vertex="1" parent="1">
          <mxGeometry x="300" y="170" width="120" height="40" as="geometry" />
        </mxCell>
        <mxCell id="tnRPR4-ctebeujlcDWqT-11" value="&lt;span style=&quot;font-size: 11px;&quot;&gt;Get back 10 Token A&lt;/span&gt;" style="rounded=0;whiteSpace=wrap;html=1;strokeColor=#ffffff;" vertex="1" parent="1">
          <mxGeometry x="420" y="170" width="120" height="40" as="geometry" />
        </mxCell>
        <mxCell id="tnRPR4-ctebeujlcDWqT-12" value="&lt;b&gt;Token Reserve&lt;/b&gt;&lt;br&gt;-10&lt;br&gt;&lt;b&gt;LP Shares&lt;/b&gt;&lt;br&gt;+5" style="rounded=1;whiteSpace=wrap;html=1;" vertex="1" parent="1">
          <mxGeometry x="320" y="240" width="200" height="60" as="geometry" />
        </mxCell>
        <mxCell id="tnRPR4-ctebeujlcDWqT-13" value="&lt;b&gt;&lt;u&gt;Deposit&lt;/u&gt;&lt;/b&gt;" style="rounded=0;whiteSpace=wrap;html=1;strokeColor=#ffffff;" vertex="1" parent="1">
          <mxGeometry x="110" y="30" width="120" height="40" as="geometry" />
        </mxCell>
        <mxCell id="tnRPR4-ctebeujlcDWqT-14" value="&lt;b&gt;&lt;u&gt;Withdraw&lt;/u&gt;&lt;/b&gt;" style="rounded=0;whiteSpace=wrap;html=1;strokeColor=#ffffff;" vertex="1" parent="1">
          <mxGeometry x="360" y="30" width="120" height="40" as="geometry" />
        </mxCell>
      </root>
    </mxGraphModel>
  </diagram>
</mxfile>
